<?xml version="1.0" encoding="utf-8"?>
<!-- Generator: Adobe Illustrator 25.0.0, SVG Export Plug-In . SVG Version: 6.00 Build 0)  -->
<svg version="1.1" id="Capa_1" xmlns="http://www.w3.org/2000/svg" xmlns:xlink="http://www.w3.org/1999/xlink" x="0px" y="0px"
	 viewBox="0 0 96 93.6" style="enable-background:new 0 0 96 93.6;" xml:space="preserve">
<style type="text/css">
	.st0{fill:#261300;}
	.st1{fill:#FF7C00;}
</style>
<g id="g3256_1_">
	<path id="path3250_1_" class="st0" d="M4,4h88v85.6H4V4z"/>
	<path id="path3252_1_" class="st1" d="M0,0v93.6h96V0H0z M4,4h88v85.6H4V4z"/>
	<path id="path3254_1_" class="st1" d="M33.32,53l-3.16,12c-0.08,0.32-0.2,0.4-0.6,0.4h-5.88c-0.4,0-0.48-0.12-0.4-0.6l11.36-39.76
		c0.2-0.72,0.32-1.36,0.4-3.32c0-0.28,0.12-0.4,0.32-0.4h8.4c0.28,0,0.4,0.08,0.48,0.4l12.72,43.16c0.08,0.32,0,0.52-0.32,0.52H50
		c-0.32,0-0.52-0.08-0.6-0.36L46.08,53H33.32z M44.44,46.52c-1.12-4.44-3.76-14.12-4.76-18.8H39.6c-0.84,4.68-2.96,12.6-4.64,18.8
		H44.44z M62.44,24.28c0-2.56,1.8-4.08,4.08-4.08c2.44,0,4.08,1.64,4.08,4.08c0,2.64-1.72,4.08-4.16,4.08
		C64.12,28.36,62.44,26.92,62.44,24.28z M62.92,33.36c0-0.32,0.12-0.48,0.48-0.48h6.28c0.32,0,0.48,0.12,0.48,0.48v31.56
		c0,0.32-0.08,0.48-0.48,0.48h-6.2c-0.4,0-0.52-0.2-0.52-0.52V33.36L62.92,33.36z"/>
</g>
</svg>
