<?xml version="1.0" encoding="utf-8"?>
<!-- Generator: Adobe Illustrator 25.0.0, SVG Export Plug-In . SVG Version: 6.00 Build 0)  -->
<svg version="1.1" id="Layer_1" xmlns="http://www.w3.org/2000/svg" xmlns:xlink="http://www.w3.org/1999/xlink" x="0px" y="0px"
	 viewBox="0 0 96 96" style="enable-background:new 0 0 96 96;" xml:space="preserve">
<style type="text/css">
	.st0{fill:#17578E;}
</style>
<path class="st0" d="M91.36,47.51c-2.42,1.39-4.83,2.78-7.38,4.24c1.73,1.01,3.36,1.96,5.05,2.96c-0.19,0.12-0.32,0.21-0.45,0.29
	c-8.64,4.94-17.29,9.88-25.93,14.82c-4.73,2.71-9.47,5.41-14.19,8.13c-0.39,0.22-0.66,0.25-1.07,0.02
	c-9.97-5.75-19.94-11.49-29.92-17.22c-3.38-1.94-6.76-3.89-10.14-5.84c-0.13-0.07-0.25-0.15-0.46-0.28c1.7-0.97,3.35-1.92,5.09-2.92
	c-0.23-0.14-0.37-0.24-0.51-0.32c-2.12-1.2-4.24-2.4-6.37-3.58c-0.32-0.18-0.46-0.38-0.46-0.76c0.02-1.88,0.01-3.75,0.01-5.63
	c0-0.14,0.01-0.28,0.02-0.49c0.18,0.09,0.31,0.15,0.43,0.22c12.34,7.1,24.68,14.21,37.03,21.31c1.77,1.02,3.54,2.02,5.29,3.06
	c0.38,0.22,0.65,0.17,1.01-0.03c6.39-3.67,12.8-7.32,19.2-10.98c7.87-4.5,15.75-9,23.62-13.5c0.04-0.02,0.08-0.04,0.12-0.06
	C91.36,43.14,91.36,45.33,91.36,47.51z"/>
<path class="st0" d="M91.36,29.96c-0.1,0.03-0.2,0.06-0.28,0.1c-2.24,1.29-4.48,2.58-6.72,3.87c-0.08,0.05-0.16,0.12-0.32,0.24
	c1.69,0.99,3.32,1.94,5.04,2.95c-0.21,0.13-0.36,0.23-0.51,0.32c-4.46,2.55-8.93,5.1-13.39,7.65C66.23,50.2,57.29,55.3,48.35,60.42
	c-0.33,0.19-0.56,0.17-0.88-0.01c-10.35-6.01-20.7-12-31.06-18c-3.06-1.77-6.11-3.54-9.16-5.31c-0.1-0.06-0.19-0.13-0.37-0.24
	c1.7-0.92,3.35-1.81,5.09-2.75c-0.23-0.15-0.38-0.26-0.53-0.35c-2.11-1.21-4.23-2.43-6.35-3.63c-0.32-0.18-0.46-0.39-0.45-0.77
	c0.02-1.83,0.01-3.67,0.01-5.5c0-0.15,0-0.29,0-0.53c0.21,0.1,0.35,0.16,0.48,0.23c10.05,5.78,20.11,11.56,30.16,17.34
	c4.07,2.34,8.14,4.68,12.21,7.04c0.3,0.18,0.53,0.19,0.84,0.01c8.23-4.72,16.46-9.43,24.69-14.14c5.91-3.38,11.82-6.76,17.74-10.14
	c0.2-0.12,0.41-0.24,0.61-0.36C91.36,25.52,91.36,27.74,91.36,29.96z"/>
<path class="st0" d="M6.88,19.47c0.15-0.1,0.24-0.17,0.34-0.23c9.22-5.28,18.43-10.57,27.66-15.82c2.61-1.48,5.45-2.32,8.41-2.8
	c2.46-0.4,4.94-0.48,7.42-0.24c4.34,0.42,8.35,1.79,12.13,4.01c8.54,5.01,17.13,9.91,25.71,14.86c0.15,0.09,0.29,0.18,0.5,0.3
	c-0.78,0.45-1.49,0.86-2.21,1.27c-12.82,7.31-25.64,14.63-38.45,21.95c-0.34,0.2-0.59,0.19-0.93,0
	c-6.47-3.72-12.94-7.43-19.41-11.14c-6.91-3.96-13.81-7.92-20.72-11.88C7.19,19.66,7.06,19.58,6.88,19.47z M28.43,19.5
	c0.22,0.14,0.35,0.23,0.48,0.31c1.15,0.66,2.32,1.3,3.46,1.98c0.3,0.18,0.53,0.2,0.84,0.01c1.87-1.1,3.75-2.18,5.65-3.24
	c3.22-1.81,6.7-2.48,10.37-2.25c3.14,0.19,6.05,1.09,8.73,2.76c1.58,0.98,3.22,1.87,4.82,2.82c0.27,0.16,0.46,0.16,0.72,0
	c1.18-0.71,2.37-1.39,3.55-2.08c0.14-0.08,0.28-0.19,0.48-0.32c-0.22-0.14-0.36-0.24-0.51-0.32c-2.72-1.55-5.46-3.07-8.16-4.64
	c-2.92-1.69-6.1-2.44-9.43-2.56c-1.64-0.06-3.31,0.01-4.94,0.18c-2.61,0.27-5.09,0.99-7.38,2.33c-2.54,1.48-5.09,2.95-7.63,4.42
	C29.16,19.06,28.85,19.25,28.43,19.5z M38.61,25.28c0.18,0.13,0.27,0.2,0.36,0.26c2.87,1.65,5.73,3.29,8.59,4.95
	c0.29,0.17,0.51,0.17,0.8,0c2.88-1.66,5.77-3.3,8.65-4.94c0.11-0.06,0.2-0.14,0.31-0.22c-1.27-1.2-5.87-2.52-9.08-2.54
	C44.87,22.76,41.66,23.51,38.61,25.28z"/>
<path class="st0" d="M4.81,58.54c1.52,0.87,2.96,1.71,4.4,2.54c9.05,5.21,18.1,10.43,27.14,15.64c3.71,2.14,7.42,4.27,11.13,6.43
	c0.33,0.19,0.56,0.18,0.88,0c8.24-4.73,16.48-9.45,24.72-14.17c5.78-3.31,11.56-6.62,17.34-9.93c0.19-0.11,0.38-0.21,0.7-0.39
	c-0.25,1.09-0.42,2.06-0.69,3c-1.68,5.91-4.74,10.94-9.5,14.9c-1.62,1.35-3.49,2.32-5.31,3.37c-7.37,4.23-14.74,8.45-22.11,12.67
	c-1.77,1.01-3.54,2.02-5.3,3.04c-0.25,0.15-0.44,0.14-0.68-0.01c-8.41-4.86-16.83-9.72-25.25-14.58c-1.54-0.89-3.08-1.76-4.61-2.65
	c-3.19-1.85-5.73-4.39-7.82-7.4c-2.51-3.62-4.2-7.58-4.99-11.92C4.86,58.93,4.84,58.79,4.81,58.54z"/>
</svg>
