<?xml version="1.0" encoding="utf-8"?>
<!-- Generator: Adobe Illustrator 25.0.0, SVG Export Plug-In . SVG Version: 6.00 Build 0)  -->
<svg version="1.1" id="Layer_1" xmlns="http://www.w3.org/2000/svg" xmlns:xlink="http://www.w3.org/1999/xlink" x="0px" y="0px"
	 viewBox="0 0 96 96" style="enable-background:new 0 0 96 96;" xml:space="preserve">
<style type="text/css">
	.st0{fill:#144A82;}
</style>
<path class="st0" d="M49.67,95.75c0-10.86,0-21.5,0-32.13c0-5.09-0.15-10.19,0.07-15.28c0.1-2.31-0.76-3.42-2.67-4.51
	C33.37,36.02,19.75,28.09,5.81,20.02c1.36-0.8,2.52-1.5,3.69-2.18c8.08-4.68,16.07-9.56,24.28-13.99
	c8.75-4.72,17.88-4.84,26.62-0.12c9.93,5.36,19.59,11.22,29.32,16.93c0.61,0.36,1.18,1.35,1.19,2.05
	c0.06,11.98,0.47,23.99-0.14,35.94c-0.46,8.88-5.06,16.13-12.7,20.85c-9.02,5.58-18.32,10.71-27.51,16.03
	C50.38,95.63,50.14,95.64,49.67,95.75z M27.65,20.04c3.72,2.98,3.72,2.98,7.52,0.73c0.96-0.57,1.91-1.18,2.91-1.68
	c6.16-3.13,12.36-3.25,18.43,0.11c5.94,3.3,11.76,6.82,17.67,10.17c1.13,0.64,1.49,1.38,1.48,2.65c-0.06,6.89,0.1,13.78-0.06,20.66
	c-0.16,6.75-3.23,12.01-8.92,15.66c-1.7,1.09-3.51,1.99-5.21,3.08c-0.49,0.31-1.01,0.95-1.07,1.48c-0.15,1.37-0.05,2.76-0.05,4.63
	c3.68-2.19,7.13-3.86,10.14-6.11c6.26-4.69,9.76-11,9.82-18.97c0.05-6.51-0.27-13.04,0.11-19.53c0.24-4.02-0.88-6.36-4.61-8.16
	C70.52,22.2,65.5,19.03,60.44,16C47.69,8.35,37.51,12.84,27.65,20.04z M60.34,57.56c0.29,0.1,0.59,0.2,0.88,0.31
	c1.1-2.55,2.77-5.01,3.17-7.66c0.64-4.25,0.46-8.62,0.55-12.95c0.01-0.41-0.38-1.03-0.75-1.23c-3.86-2.08-7.67-4.31-11.69-6.06
	c-2.5-1.09-5.34-1.24-8.63-0.29c5.01,2.91,9.45,5.64,14.06,8.07c1.94,1.03,2.53,2.22,2.46,4.35C60.23,47.25,60.34,52.41,60.34,57.56
	z"/>
<path class="st0" d="M3.89,60.02c10.06,5.81,19.94,11.52,29.83,17.24c1.28-3.43,0.77-4.99-2.16-6.68
	c-7.82-4.54-15.65-9.06-23.48-13.59c-0.69-0.4-1.37-0.83-2.27-1.37c3.44-2,6.57-3.9,9.8-5.6c0.57-0.3,1.68,0.01,2.34,0.38
	c5.27,2.96,10.49,6.01,15.74,9.04c1.31-3.38,0.78-4.98-2.13-6.67c-8.86-5.14-17.7-10.3-26.59-15.37c-1.21-0.69-1.66-1.43-1.62-2.81
	c0.1-3.35,0.03-6.71,0.03-10.48c3.1,1.79,5.91,3.41,8.72,5.03c10.22,5.91,20.44,11.84,30.69,17.7c1.44,0.82,2.1,1.69,2.09,3.48
	c-0.09,14.08-0.05,28.16-0.05,42.24c0,0.96,0,1.92,0,3.16c-0.77-0.28-1.26-0.39-1.67-0.63c-8.8-5.08-17.66-10.07-26.37-15.3
	c-7.06-4.23-11-10.78-12.9-18.66C3.83,60.87,3.89,60.57,3.89,60.02z"/>
</svg>
